<?xml version="1.0" standalone="no"?>
<!DOCTYPE svg PUBLIC "-//W3C//DTD SVG 20010904//EN"
 "http://www.w3.org/TR/2001/REC-SVG-20010904/DTD/svg10.dtd">
<svg version="1.0" xmlns="http://www.w3.org/2000/svg"
 width="300.000000pt" height="300.000000pt" viewBox="0 0 300.000000 300.000000"
 preserveAspectRatio="xMidYMid meet">
<metadata>
Created by potrace 1.14, written by Peter Selinger 2001-2017
</metadata>
<g transform="translate(0.000000,300.000000) scale(0.100000,-0.100000)"
fill="#000000" stroke="none">
<path d="M1105 2286 c-283 -120 -411 -179 -413 -191 -5 -24 29 -143 44 -156 9
-8 113 36 401 167 213 97 394 181 401 187 19 15 12 161 -8 164 -8 2 -199 -75
-425 -171z"/>
<path d="M1173 2081 l-342 -157 354 -207 c194 -114 356 -207 359 -207 4 0 5
163 4 362 -3 314 -5 363 -18 365 -8 1 -169 -69 -357 -156z"/>
<path d="M772 1888 c-7 -9 16 -119 79 -377 49 -201 91 -366 93 -368 6 -7 571
317 571 327 0 10 -709 430 -725 430 -4 0 -12 -6 -18 -12z"/>
<path d="M1985 1690 c-198 -116 -361 -214 -363 -218 -2 -6 528 -314 568 -330
4 -2 49 162 99 364 88 358 94 394 62 394 -4 0 -169 -95 -366 -210z"/>
<path d="M1590 1131 c0 -260 2 -313 14 -317 10 -4 544 267 573 290 2 1 -120
72 -270 156 -149 85 -282 160 -294 168 l-23 14 0 -311z"/>
<path d="M1250 1269 c-157 -88 -286 -161 -287 -162 -6 -7 562 -297 573 -293
12 4 14 58 14 311 0 168 -3 305 -7 305 -5 0 -136 -73 -293 -161z"/>
<path d="M993 861 c-89 -56 -82 -207 12 -247 152 -63 274 117 155 231 -40 38
-120 46 -167 16z"/>
<path d="M1495 640 c-11 -4 -33 -22 -49 -38 -57 -61 -42 -168 31 -213 50 -31
132 -23 173 16 95 91 34 247 -97 244 -21 0 -47 -4 -58 -9z"/>
</g>
</svg>
